<?xml version="1.0" encoding="UTF-8" standalone="no"?>
<svg xmlns="http://www.w3.org/2000/svg" width="1039" height="276" viewBox="0 0 1039 276">
  <title>Confelion Logo</title>
  <desc>Vectorized Confelion logo recreated from the supplied raster artwork.</desc>
  <g fill="#ffffff" fill-rule="evenodd">
    <path d="M 344.00,48.00 L 343.00,49.00 L 340.00,49.00 L 339.00,50.00 L 334.00,51.00 L 328.00,54.00 L 323.00,59.00 L 322.00,59.00 L 319.00,63.00 L 319.00,64.00 L 317.00,66.00 L 317.00,68.00 L 315.00,71.00 L 315.00,75.00 L 314.00,76.00 L 314.00,202.00 L 315.00,203.00 L 315.00,207.00 L 317.00,210.00 L 317.00,212.00 L 318.00,214.00 L 321.00,217.00 L 321.00,218.00 L 328.00,224.00 L 332.00,226.00 L 334.00,226.00 L 335.00,227.00 L 338.00,227.00 L 339.00,228.00 L 342.00,228.00 L 343.00,229.00 L 367.00,229.00 L 368.00,228.00 L 371.00,228.00 L 372.00,227.00 L 375.00,227.00 L 376.00,226.00 L 378.00,226.00 L 384.00,223.00 L 392.00,216.00 L 392.00,215.00 L 394.00,213.00 L 396.00,209.00 L 396.00,207.00 L 398.00,203.00 L 398.00,159.00 L 363.00,159.00 L 363.00,196.00 L 362.00,198.00 L 359.00,201.00 L 354.00,201.00 L 351.00,198.00 L 350.00,196.00 L 350.00,84.00 L 351.00,83.00 L 351.00,81.00 L 354.00,78.00 L 356.00,77.00 L 358.00,78.00 L 360.00,78.00 L 363.00,82.00 L 363.00,128.00 L 398.00,128.00 L 398.00,72.00 L 397.00,71.00 L 397.00,69.00 L 394.00,63.00 L 391.00,60.00 L 391.00,59.00 L 389.00,58.00 L 385.00,54.00 L 379.00,51.00 L 377.00,51.00 L 373.00,49.00 L 369.00,49.00 L 368.00,48.00 Z"/> <path d="M 447.00,89.00 L 446.00,90.00 L 441.00,90.00 L 435.00,93.00 L 433.00,93.00 L 429.00,96.00 L 428.00,96.00 L 425.00,99.00 L 424.00,99.00 L 424.00,100.00 L 421.00,103.00 L 418.00,109.00 L 418.00,111.00 L 417.00,112.00 L 417.00,115.00 L 416.00,116.00 L 416.00,203.00 L 417.00,204.00 L 417.00,207.00 L 418.00,208.00 L 418.00,210.00 L 420.00,214.00 L 422.00,216.00 L 422.00,217.00 L 427.00,222.00 L 428.00,222.00 L 430.00,224.00 L 434.00,226.00 L 436.00,226.00 L 437.00,227.00 L 440.00,227.00 L 441.00,228.00 L 445.00,228.00 L 446.00,229.00 L 464.00,229.00 L 465.00,228.00 L 469.00,228.00 L 470.00,227.00 L 475.00,226.00 L 483.00,222.00 L 489.00,216.00 L 489.00,215.00 L 491.00,213.00 L 493.00,209.00 L 494.00,204.00 L 495.00,203.00 L 495.00,115.00 L 494.00,114.00 L 494.00,111.00 L 493.00,110.00 L 493.00,108.00 L 491.00,104.00 L 489.00,102.00 L 489.00,101.00 L 482.00,95.00 L 476.00,92.00 L 474.00,92.00 L 473.00,91.00 L 470.00,91.00 L 469.00,90.00 L 464.00,90.00 L 463.00,89.00 Z"/> <path d="M 896.00,90.00 L 895.00,91.00 L 892.00,91.00 L 886.00,94.00 L 884.00,94.00 L 878.00,99.00 L 877.00,99.00 L 877.00,100.00 L 873.00,104.00 L 870.00,110.00 L 870.00,112.00 L 869.00,113.00 L 869.00,118.00 L 868.00,119.00 L 868.00,198.00 L 869.00,199.00 L 869.00,205.00 L 870.00,206.00 L 871.00,211.00 L 874.00,215.00 L 874.00,216.00 L 880.00,222.00 L 881.00,222.00 L 883.00,224.00 L 887.00,226.00 L 889.00,226.00 L 890.00,227.00 L 893.00,227.00 L 894.00,228.00 L 898.00,228.00 L 899.00,229.00 L 914.00,229.00 L 915.00,228.00 L 919.00,228.00 L 920.00,227.00 L 922.00,227.00 L 923.00,226.00 L 928.00,225.00 L 930.00,223.00 L 934.00,221.00 L 939.00,216.00 L 944.00,206.00 L 944.00,202.00 L 945.00,201.00 L 945.00,115.00 L 944.00,114.00 L 944.00,111.00 L 940.00,103.00 L 933.00,96.00 L 925.00,92.00 L 923.00,92.00 L 922.00,91.00 L 919.00,91.00 L 918.00,90.00 Z"/> <path d="M 710.00,90.00 L 709.00,91.00 L 707.00,91.00 L 706.00,92.00 L 701.00,93.00 L 697.00,95.00 L 694.00,98.00 L 693.00,98.00 L 688.00,104.00 L 685.00,110.00 L 685.00,112.00 L 684.00,113.00 L 684.00,118.00 L 683.00,119.00 L 683.00,201.00 L 684.00,202.00 L 684.00,206.00 L 685.00,207.00 L 685.00,209.00 L 688.00,215.00 L 692.00,219.00 L 692.00,220.00 L 693.00,220.00 L 696.00,223.00 L 704.00,227.00 L 707.00,227.00 L 708.00,228.00 L 712.00,228.00 L 713.00,229.00 L 728.00,229.00 L 729.00,228.00 L 733.00,228.00 L 734.00,227.00 L 737.00,227.00 L 738.00,226.00 L 740.00,226.00 L 746.00,223.00 L 748.00,221.00 L 749.00,221.00 L 754.00,216.00 L 754.00,215.00 L 756.00,213.00 L 758.00,209.00 L 759.00,204.00 L 760.00,203.00 L 760.00,198.00 L 761.00,197.00 L 761.00,176.00 L 760.00,175.00 L 728.00,175.00 L 728.00,194.00 L 727.00,195.00 L 727.00,198.00 L 724.00,201.00 L 719.00,201.00 L 716.00,197.00 L 716.00,169.00 L 717.00,168.00 L 736.00,168.00 L 737.00,167.00 L 738.00,168.00 L 741.00,168.00 L 742.00,167.00 L 751.00,167.00 L 752.00,168.00 L 756.00,168.00 L 757.00,167.00 L 759.00,168.00 L 761.00,166.00 L 761.00,120.00 L 760.00,119.00 L 760.00,114.00 L 759.00,113.00 L 759.00,110.00 L 756.00,104.00 L 751.00,98.00 L 750.00,98.00 L 745.00,94.00 L 743.00,93.00 L 741.00,93.00 L 740.00,92.00 L 738.00,92.00 L 737.00,91.00 L 734.00,91.00 L 733.00,90.00 Z"/> <path d="M 576.00,92.00 L 574.00,92.00 L 573.00,91.00 L 570.00,91.00 L 569.00,90.00 L 558.00,90.00 L 557.00,91.00 L 552.00,92.00 L 545.00,98.00 L 544.00,97.00 L 544.00,93.00 L 543.00,92.00 L 513.00,92.00 L 512.00,93.00 L 512.00,226.00 L 516.00,226.00 L 517.00,227.00 L 519.00,227.00 L 520.00,226.00 L 544.00,226.00 L 544.00,123.00 L 545.00,122.00 L 545.00,120.00 L 549.00,117.00 L 552.00,117.00 L 555.00,120.00 L 556.00,122.00 L 556.00,226.00 L 589.00,226.00 L 590.00,224.00 L 589.00,222.00 L 589.00,219.00 L 590.00,218.00 L 590.00,159.00 L 589.00,158.00 L 590.00,156.00 L 590.00,139.00 L 589.00,138.00 L 590.00,137.00 L 590.00,128.00 L 589.00,127.00 L 589.00,125.00 L 590.00,124.00 L 590.00,117.00 L 589.00,116.00 L 589.00,109.00 L 588.00,108.00 L 588.00,106.00 L 587.00,105.00 L 587.00,103.00 L 586.00,101.00 L 581.00,95.00 L 580.00,95.00 Z"/> <path d="M 1018.00,91.00 L 1015.00,91.00 L 1014.00,90.00 L 1004.00,90.00 L 1003.00,91.00 L 1000.00,91.00 L 996.00,93.00 L 991.00,98.00 L 990.00,97.00 L 990.00,93.00 L 989.00,92.00 L 959.00,92.00 L 958.00,93.00 L 958.00,226.00 L 960.00,227.00 L 989.00,227.00 L 990.00,226.00 L 990.00,121.00 L 991.00,119.00 L 994.00,117.00 L 998.00,117.00 L 1001.00,120.00 L 1001.00,123.00 L 1002.00,124.00 L 1002.00,226.00 L 1003.00,227.00 L 1033.00,227.00 L 1034.00,226.00 L 1034.00,111.00 L 1033.00,110.00 L 1033.00,107.00 L 1032.00,106.00 L 1032.00,104.00 L 1030.00,100.00 L 1024.00,94.00 Z"/> <path d="M 129.00,5.00 L 124.00,5.00 L 123.00,4.00 L 99.00,4.00 L 98.00,5.00 L 93.00,5.00 L 92.00,6.00 L 85.00,7.00 L 84.00,8.00 L 82.00,8.00 L 81.00,9.00 L 76.00,10.00 L 73.00,12.00 L 71.00,12.00 L 61.00,17.00 L 59.00,19.00 L 56.00,20.00 L 54.00,22.00 L 50.00,24.00 L 47.00,27.00 L 46.00,27.00 L 31.00,42.00 L 31.00,43.00 L 27.00,47.00 L 27.00,48.00 L 21.00,56.00 L 13.00,72.00 L 13.00,74.00 L 11.00,77.00 L 11.00,79.00 L 9.00,83.00 L 9.00,86.00 L 7.00,90.00 L 6.00,99.00 L 5.00,100.00 L 5.00,106.00 L 4.00,107.00 L 4.00,124.00 L 5.00,125.00 L 5.00,131.00 L 6.00,132.00 L 6.00,138.00 L 7.00,139.00 L 8.00,146.00 L 9.00,147.00 L 9.00,149.00 L 10.00,150.00 L 10.00,152.00 L 11.00,153.00 L 12.00,158.00 L 20.00,174.00 L 22.00,176.00 L 24.00,180.00 L 28.00,184.00 L 28.00,185.00 L 42.00,199.00 L 43.00,199.00 L 46.00,202.00 L 47.00,202.00 L 52.00,206.00 L 55.00,207.00 L 57.00,209.00 L 65.00,213.00 L 67.00,213.00 L 73.00,216.00 L 76.00,216.00 L 80.00,218.00 L 83.00,218.00 L 84.00,219.00 L 88.00,219.00 L 89.00,220.00 L 97.00,220.00 L 97.00,206.00 L 95.00,205.00 L 93.00,205.00 L 92.00,204.00 L 90.00,204.00 L 80.00,199.00 L 75.00,195.00 L 72.00,194.00 L 67.00,189.00 L 66.00,189.00 L 58.00,181.00 L 58.00,180.00 L 54.00,176.00 L 54.00,175.00 L 51.00,172.00 L 47.00,164.00 L 44.00,160.00 L 44.00,158.00 L 41.00,153.00 L 41.00,151.00 L 40.00,150.00 L 40.00,148.00 L 38.00,144.00 L 38.00,141.00 L 37.00,140.00 L 37.00,136.00 L 36.00,135.00 L 36.00,131.00 L 35.00,130.00 L 35.00,106.00 L 36.00,105.00 L 36.00,101.00 L 37.00,100.00 L 37.00,96.00 L 38.00,95.00 L 38.00,92.00 L 39.00,91.00 L 39.00,89.00 L 40.00,88.00 L 40.00,86.00 L 41.00,85.00 L 42.00,80.00 L 44.00,77.00 L 44.00,75.00 L 49.00,65.00 L 51.00,63.00 L 51.00,62.00 L 53.00,60.00 L 53.00,59.00 L 55.00,57.00 L 57.00,53.00 L 63.00,47.00 L 63.00,46.00 L 65.00,45.00 L 65.00,44.00 L 67.00,43.00 L 73.00,37.00 L 77.00,35.00 L 80.00,32.00 L 94.00,25.00 L 96.00,25.00 L 99.00,23.00 L 102.00,23.00 L 106.00,21.00 L 111.00,21.00 L 112.00,20.00 L 118.00,20.00 L 119.00,19.00 L 134.00,19.00 L 135.00,20.00 L 141.00,20.00 L 142.00,21.00 L 147.00,21.00 L 148.00,22.00 L 151.00,22.00 L 155.00,24.00 L 158.00,24.00 L 159.00,25.00 L 164.00,26.00 L 167.00,28.00 L 169.00,28.00 L 173.00,30.00 L 173.00,28.00 L 172.00,28.00 L 166.00,22.00 L 165.00,22.00 L 162.00,19.00 L 156.00,16.00 L 154.00,14.00 L 150.00,12.00 L 148.00,12.00 L 145.00,10.00 L 140.00,9.00 L 137.00,7.00 L 134.00,7.00 L 133.00,6.00 L 130.00,6.00 Z"/> <path d="M 674.00,49.00 L 637.00,49.00 L 634.00,51.00 L 632.00,51.00 L 630.00,53.00 L 629.00,53.00 L 624.00,58.00 L 620.00,66.00 L 620.00,69.00 L 619.00,70.00 L 619.00,91.00 L 618.00,92.00 L 606.00,92.00 L 605.00,93.00 L 605.00,118.00 L 606.00,119.00 L 618.00,119.00 L 619.00,120.00 L 619.00,226.00 L 651.00,226.00 L 652.00,224.00 L 652.00,120.00 L 653.00,119.00 L 671.00,119.00 L 672.00,118.00 L 672.00,93.00 L 671.00,92.00 L 653.00,92.00 L 652.00,91.00 L 652.00,81.00 L 655.00,78.00 L 657.00,77.00 L 674.00,77.00 Z"/> <path d="M 229.00,113.00 L 163.00,113.00 L 162.00,114.00 L 155.00,115.00 L 137.00,124.00 L 128.00,132.00 L 128.00,133.00 L 121.00,141.00 L 116.00,151.00 L 116.00,153.00 L 115.00,154.00 L 115.00,156.00 L 113.00,160.00 L 113.00,164.00 L 112.00,165.00 L 112.00,271.00 L 113.00,271.00 L 123.00,261.00 L 123.00,260.00 L 137.00,245.00 L 137.00,244.00 L 140.00,241.00 L 145.00,231.00 L 145.00,229.00 L 147.00,225.00 L 147.00,221.00 L 148.00,220.00 L 148.00,214.00 L 149.00,213.00 L 149.00,162.00 L 152.00,156.00 L 158.00,151.00 L 160.00,150.00 L 163.00,150.00 L 164.00,149.00 L 189.00,149.00 L 190.00,148.00 L 193.00,148.00 L 194.00,147.00 L 196.00,147.00 L 197.00,146.00 L 199.00,146.00 L 203.00,144.00 L 205.00,142.00 L 209.00,140.00 L 217.00,133.00 L 217.00,132.00 L 224.00,124.00 L 225.00,121.00 L 228.00,118.00 L 229.00,116.00 Z"/> <path d="M 775.00,50.00 L 774.00,51.00 L 774.00,226.00 L 775.00,227.00 L 806.00,227.00 L 807.00,226.00 L 807.00,50.00 Z"/> <path d="M 109.00,133.00 L 111.00,133.00 L 111.00,132.00 L 113.00,130.00 L 113.00,129.00 L 115.00,127.00 L 115.00,126.00 L 117.00,124.00 L 119.00,120.00 L 122.00,117.00 L 122.00,116.00 L 125.00,113.00 L 125.00,112.00 L 130.00,107.00 L 130.00,106.00 L 138.00,98.00 L 139.00,98.00 L 142.00,95.00 L 143.00,95.00 L 148.00,91.00 L 156.00,87.00 L 158.00,87.00 L 159.00,86.00 L 162.00,86.00 L 163.00,85.00 L 167.00,85.00 L 168.00,84.00 L 230.00,84.00 L 231.00,83.00 L 235.00,83.00 L 236.00,82.00 L 241.00,81.00 L 245.00,79.00 L 250.00,75.00 L 251.00,75.00 L 260.00,67.00 L 260.00,66.00 L 265.00,61.00 L 265.00,60.00 L 269.00,55.00 L 270.00,52.00 L 272.00,50.00 L 272.00,47.00 L 166.00,47.00 L 165.00,48.00 L 159.00,48.00 L 158.00,49.00 L 156.00,49.00 L 155.00,50.00 L 153.00,50.00 L 152.00,51.00 L 150.00,51.00 L 147.00,53.00 L 145.00,53.00 L 143.00,54.00 L 141.00,56.00 L 137.00,58.00 L 134.00,61.00 L 133.00,61.00 L 125.00,69.00 L 125.00,70.00 L 122.00,73.00 L 122.00,74.00 L 120.00,76.00 L 119.00,79.00 L 116.00,83.00 L 116.00,85.00 L 114.00,88.00 L 114.00,90.00 L 113.00,91.00 L 113.00,93.00 L 111.00,97.00 L 111.00,101.00 L 110.00,102.00 L 110.00,110.00 L 109.00,111.00 Z"/> <path d="M 823.00,91.00 L 822.00,92.00 L 822.00,226.00 L 824.00,227.00 L 855.00,227.00 L 856.00,225.00 L 856.00,92.00 L 855.00,91.00 Z"/> <path d="M 55.00,83.00 L 54.00,84.00 L 54.00,87.00 L 53.00,88.00 L 53.00,91.00 L 52.00,92.00 L 52.00,97.00 L 51.00,98.00 L 51.00,102.00 L 50.00,103.00 L 50.00,108.00 L 49.00,109.00 L 49.00,113.00 L 48.00,114.00 L 48.00,121.00 L 47.00,122.00 L 47.00,130.00 L 48.00,131.00 L 48.00,136.00 L 49.00,137.00 L 50.00,142.00 L 53.00,148.00 L 55.00,147.00 L 55.00,143.00 L 56.00,142.00 L 56.00,139.00 L 57.00,138.00 L 57.00,133.00 L 58.00,132.00 L 58.00,128.00 L 59.00,127.00 L 59.00,123.00 L 60.00,122.00 L 60.00,118.00 L 61.00,117.00 L 61.00,112.00 L 62.00,111.00 L 63.00,111.00 L 68.00,116.00 L 68.00,117.00 L 75.00,124.00 L 75.00,125.00 L 82.00,132.00 L 82.00,133.00 L 97.00,148.00 L 98.00,148.00 L 98.00,138.00 L 99.00,137.00 L 99.00,113.00 L 100.00,112.00 L 100.00,105.00 L 101.00,104.00 L 101.00,98.00 L 102.00,97.00 L 102.00,93.00 L 103.00,92.00 L 103.00,88.00 L 104.00,87.00 L 104.00,84.00 L 101.00,85.00 L 95.00,92.00 L 91.00,100.00 L 91.00,102.00 L 90.00,103.00 L 90.00,106.00 L 89.00,107.00 L 89.00,113.00 L 88.00,114.00 L 88.00,117.00 L 87.00,118.00 L 80.00,111.00 L 80.00,110.00 L 73.00,103.00 L 73.00,102.00 L 65.00,94.00 L 65.00,93.00 L 59.00,87.00 L 59.00,86.00 L 56.00,83.00 Z"/> <path d="M 822.00,51.00 L 822.00,81.00 L 824.00,82.00 L 833.00,82.00 L 834.00,81.00 L 836.00,81.00 L 837.00,82.00 L 850.00,82.00 L 851.00,81.00 L 855.00,81.00 L 856.00,80.00 L 856.00,51.00 L 855.00,50.00 L 823.00,50.00 Z"/> <path d="M 453.00,117.00 L 457.00,117.00 L 460.00,120.00 L 461.00,122.00 L 461.00,197.00 L 458.00,201.00 L 453.00,201.00 L 451.00,200.00 L 449.00,197.00 L 449.00,123.00 L 450.00,122.00 L 450.00,120.00 Z"/> <path d="M 905.00,117.00 L 909.00,117.00 L 912.00,120.00 L 912.00,123.00 L 913.00,124.00 L 913.00,195.00 L 912.00,196.00 L 912.00,198.00 L 909.00,201.00 L 904.00,201.00 L 901.00,198.00 L 901.00,121.00 L 902.00,119.00 Z"/> <path d="M 720.00,117.00 L 724.00,117.00 L 727.00,120.00 L 727.00,123.00 L 728.00,124.00 L 728.00,142.00 L 726.00,144.00 L 717.00,144.00 L 716.00,143.00 L 716.00,121.00 Z"/>
  </g>
</svg>
